<?xml version="1.0" encoding="UTF-8" standalone="no"?>
<svg
   font-size="1px"
   viewBox="0 10 40 37.5"
   stroke="#000000"
   width="80"
   stroke-opacity="1"
   height="60"
   version="1.1"
   id="svg24"
   sodipodi:docname="logo.svg"
   inkscape:version="1.4.3 (0d15f75, 2025-12-25)"
   xmlns:inkscape="http://www.inkscape.org/namespaces/inkscape"
   xmlns:sodipodi="http://sodipodi.sourceforge.net/DTD/sodipodi-0.dtd"
   xmlns="http://www.w3.org/2000/svg"
   xmlns:svg="http://www.w3.org/2000/svg">
  <sodipodi:namedview
     id="namedview24"
     pagecolor="#ffffff"
     bordercolor="#000000"
     borderopacity="0.25"
     inkscape:showpageshadow="2"
     inkscape:pageopacity="0.0"
     inkscape:pagecheckerboard="0"
     inkscape:deskcolor="#d1d1d1"
     inkscape:zoom="5.065689"
     inkscape:cx="51.5231"
     inkscape:cy="47.772376"
     inkscape:window-width="1920"
     inkscape:window-height="983"
     inkscape:window-x="1728"
     inkscape:window-y="368"
     inkscape:window-maximized="1"
     inkscape:current-layer="svg24" />
  <defs
     id="defs1" />
  <g
     id="g25"
     transform="translate(-11,1.75)">
    <g
       stroke-linejoin="miter"
       fill-opacity="1"
       font-size="8px"
       fill="#003688"
       stroke="#000000"
       font-family="'P22 Johnston Underground'"
       stroke-linecap="butt"
       stroke-miterlimit="10"
       stroke-opacity="1"
       stroke-width="0.5"
       id="g1" />
    <g
       stroke-linejoin="miter"
       fill-opacity="0"
       fill="#000000"
       stroke="#ffd300"
       stroke-linecap="butt"
       stroke-miterlimit="10"
       stroke-opacity="1"
       stroke-width="2"
       id="g2">
      <path
         d="m 40.5,32 h 12"
         id="path1" />
    </g>
    <g
       stroke-linejoin="miter"
       fill-opacity="0"
       fill="#000000"
       stroke="#00782a"
       stroke-linecap="butt"
       stroke-miterlimit="10"
       stroke-opacity="1"
       stroke-width="2"
       id="g3">
      <path
         d="m 40.5,34 h 12"
         id="path2" />
    </g>
    <g
       stroke-linejoin="miter"
       fill-opacity="0"
       fill="#000000"
       stroke="#ffd300"
       stroke-linecap="butt"
       stroke-miterlimit="10"
       stroke-opacity="1"
       stroke-width="2"
       id="g4">
      <path
         d="m 28.5,22 h 24"
         id="path3" />
    </g>
    <g
       stroke-linejoin="miter"
       fill-opacity="0"
       fill="#000000"
       stroke="#f3a9bb"
       stroke-linecap="butt"
       stroke-miterlimit="10"
       stroke-opacity="1"
       stroke-width="2"
       id="g5">
      <path
         d="m 28.5,20 h 24"
         id="path4" />
    </g>
    <g
       stroke-linejoin="miter"
       fill-opacity="0"
       fill="#000000"
       stroke="#e32017"
       stroke-linecap="butt"
       stroke-miterlimit="10"
       stroke-opacity="1"
       stroke-width="2"
       id="g6">
      <path
         d="m 34.5,27 -10,10 c 0,0 -2,2 -2,4 v 4"
         id="path5" />
    </g>
    <g
       stroke-linejoin="miter"
       fill-opacity="0"
       fill="#000000"
       stroke="#b36305"
       stroke-linecap="butt"
       stroke-miterlimit="10"
       stroke-opacity="1"
       stroke-width="2"
       id="g7">
      <path
         d="m 34.5,27 10,10 c 0,0 2,2 2,4 v 4"
         id="path6" />
    </g>
    <g
       stroke-linejoin="miter"
       fill-opacity="0"
       fill="#000000"
       stroke="#b36305"
       stroke-linecap="butt"
       stroke-miterlimit="10"
       stroke-opacity="1"
       stroke-width="2"
       id="g8">
      <path
         d="m 34.5,27 -10,-10 c 0,0 -2,-2 -2,-4 V 9"
         id="path7" />
    </g>
    <g
       stroke-linejoin="miter"
       fill-opacity="0"
       fill="#000000"
       stroke="#0098d4"
       stroke-linecap="butt"
       stroke-miterlimit="10"
       stroke-opacity="1"
       stroke-width="2"
       id="g9">
      <path
         d="m 22.5,27 -10,10 c 0,0 -2,2 -2,4 v 4"
         id="path8" />
    </g>
    <g
       stroke-linejoin="miter"
       fill-opacity="0"
       fill="#000000"
       stroke="#0098d4"
       stroke-linecap="butt"
       stroke-miterlimit="10"
       stroke-opacity="1"
       stroke-width="2"
       id="g10">
      <path
         d="m 22.5,27 -10,-10 c 0,0 -2,-2 -2,-4 V 9"
         id="path9" />
    </g>
    <g
       stroke-linejoin="miter"
       fill-opacity="0"
       fill="#000000"
       stroke="#000000"
       stroke-linecap="butt"
       stroke-miterlimit="10"
       stroke-opacity="1"
       stroke-width="3"
       id="g11">
      <path
         d="M 40.5,33"
         id="path10" />
    </g>
    <g
       stroke-linejoin="miter"
       fill-opacity="1"
       fill="#000000"
       stroke="#000000"
       stroke-linecap="butt"
       stroke-miterlimit="10"
       stroke-opacity="1"
       stroke-width="0"
       id="g12">
      <path
         d="m 43.5,33 c 0,-1.6569 -1.3431,-3 -3,-3 -1.6569,0 -3,1.3431 -3,3 0,1.6569 1.3431,3 3,3 1.6569,0 3,-1.3431 3,-3 z"
         id="path11" />
    </g>
    <g
       stroke-linejoin="miter"
       fill-opacity="0"
       fill="#000000"
       stroke="#ffffff"
       stroke-linecap="butt"
       stroke-miterlimit="10"
       stroke-opacity="1"
       stroke-width="1"
       id="g13">
      <path
         d="M 40.5,33"
         id="path12" />
    </g>
    <g
       stroke-linejoin="miter"
       fill-opacity="1"
       fill="#ffffff"
       stroke="#000000"
       stroke-linecap="butt"
       stroke-miterlimit="10"
       stroke-opacity="1"
       stroke-width="0"
       id="g14">
      <path
         d="m 42.5,33 c 0,-1.1046 -0.8954,-2 -2,-2 -1.1046,0 -2,0.8954 -2,2 0,1.1046 0.8954,2 2,2 1.1046,0 2,-0.8954 2,-2 z"
         id="path13" />
    </g>
    <g
       stroke-linejoin="miter"
       fill-opacity="0"
       fill="#000000"
       stroke="#000000"
       stroke-linecap="butt"
       stroke-miterlimit="10"
       stroke-opacity="1"
       stroke-width="3"
       id="g15">
      <path
         d="M 34.5,27"
         id="path14" />
    </g>
    <g
       stroke-linejoin="miter"
       fill-opacity="1"
       fill="#000000"
       stroke="#000000"
       stroke-linecap="butt"
       stroke-miterlimit="10"
       stroke-opacity="1"
       stroke-width="0"
       id="g16">
      <path
         d="m 37.5,27 c 0,-1.6569 -1.3431,-3 -3,-3 -1.6569,0 -3,1.3431 -3,3 0,1.6569 1.3431,3 3,3 1.6569,0 3,-1.3431 3,-3 z"
         id="path15" />
    </g>
    <g
       stroke-linejoin="miter"
       fill-opacity="0"
       fill="#000000"
       stroke="#ffffff"
       stroke-linecap="butt"
       stroke-miterlimit="10"
       stroke-opacity="1"
       stroke-width="1"
       id="g17">
      <path
         d="M 34.5,27"
         id="path16" />
    </g>
    <g
       stroke-linejoin="miter"
       fill-opacity="1"
       fill="#ffffff"
       stroke="#000000"
       stroke-linecap="butt"
       stroke-miterlimit="10"
       stroke-opacity="1"
       stroke-width="0"
       id="g18">
      <path
         d="m 36.5,27 c 0,-1.1046 -0.8954,-2 -2,-2 -1.1046,0 -2,0.8954 -2,2 0,1.1046 0.8954,2 2,2 1.1046,0 2,-0.8954 2,-2 z"
         id="path17" />
    </g>
    <g
       stroke-linejoin="miter"
       fill-opacity="0"
       fill="#000000"
       stroke="#000000"
       stroke-linecap="butt"
       stroke-miterlimit="10"
       stroke-opacity="1"
       stroke-width="3"
       id="g19">
      <path
         d="m 22.5,27 6,-6"
         id="path18" />
    </g>
    <g
       stroke-linejoin="miter"
       fill-opacity="1"
       fill="#000000"
       stroke="#000000"
       stroke-linecap="butt"
       stroke-miterlimit="10"
       stroke-opacity="1"
       stroke-width="0"
       id="g20">
      <path
         d="m 31.5,21 c 0,-1.6569 -1.3431,-3 -3,-3 -1.6569,0 -3,1.3431 -3,3 0,1.6569 1.3431,3 3,3 1.6569,0 3,-1.3431 3,-3 z"
         id="path19" />
    </g>
    <g
       stroke-linejoin="miter"
       fill-opacity="1"
       fill="#000000"
       stroke="#000000"
       stroke-linecap="butt"
       stroke-miterlimit="10"
       stroke-opacity="1"
       stroke-width="0"
       id="g21">
      <path
         d="m 25.5,27 c 0,-1.6569 -1.3431,-3 -3,-3 -1.6569,0 -3,1.3431 -3,3 0,1.6569 1.3431,3 3,3 1.6569,0 3,-1.3431 3,-3 z"
         id="path20" />
    </g>
    <g
       stroke-linejoin="miter"
       fill-opacity="0"
       fill="#000000"
       stroke="#ffffff"
       stroke-linecap="butt"
       stroke-miterlimit="10"
       stroke-opacity="1"
       stroke-width="1"
       id="g22">
      <path
         d="m 22.5,27 6,-6"
         id="path21" />
    </g>
    <g
       stroke-linejoin="miter"
       fill-opacity="1"
       fill="#ffffff"
       stroke="#000000"
       stroke-linecap="butt"
       stroke-miterlimit="10"
       stroke-opacity="1"
       stroke-width="0"
       id="g23">
      <path
         d="m 30.5,21 c 0,-1.1046 -0.8954,-2 -2,-2 -1.1046,0 -2,0.8954 -2,2 0,1.1046 0.8954,2 2,2 1.1046,0 2,-0.8954 2,-2 z"
         id="path22" />
    </g>
    <g
       stroke-linejoin="miter"
       fill-opacity="1"
       fill="#ffffff"
       stroke="#000000"
       stroke-linecap="butt"
       stroke-miterlimit="10"
       stroke-opacity="1"
       stroke-width="0"
       id="g24">
      <path
         d="m 24.5,27 c 0,-1.1046 -0.8954,-2 -2,-2 -1.1046,0 -2,0.8954 -2,2 0,1.1046 0.8954,2 2,2 1.1046,0 2,-0.8954 2,-2 z"
         id="path23" />
    </g>
  </g>
</svg>
